<?xml version="1.0" standalone="no"?>
<!DOCTYPE svg PUBLIC "-//W3C//DTD SVG 1.1//EN" "http://www.w3.org/Graphics/SVG/1.1/DTD/svg11.dtd" >
<svg xmlns="http://www.w3.org/2000/svg">
<metadata></metadata>
<defs>
<font id="arquitectabold" horiz-adv-x="1257" >
<font-face units-per-em="2048" ascent="1536" descent="-512" />
<missing-glyph horiz-adv-x="378" />
<glyph unicode="&#xfb01;" horiz-adv-x="1150" d="M395 551v-551h-200v551h-158v158h158v290q0 182 84.5 273.5t234.5 91.5q24 0 47.5 -2.5t40 -6.5t32 -9t24.5 -8.5t16 -7.5l8 -3l-51 -174q-47 25 -88 25q-75 0 -111.5 -43.5t-36.5 -135.5v-290h238v-158h-238zM942 963q-51 0 -85 33.5t-34 84.5t34 86t85 35t86 -35 t35 -86t-35 -84.5t-86 -33.5zM842 709h200v-709h-200v709z" />
<glyph unicode="&#xfb02;" horiz-adv-x="1138" d="M825 1368h201v-1368h-201v1368zM395 551v-551h-200v551h-158v158h158v290q0 182 84.5 273.5t234.5 91.5q24 0 47.5 -2.5t40 -6.5t32 -9t24.5 -8.5t16 -7.5l8 -3l-51 -174q-47 25 -88 25q-75 0 -111.5 -43.5t-36.5 -135.5v-290h238v-158h-238z" />
<glyph unicode="&#xfb03;" horiz-adv-x="1841" d="M395 551v-551h-200v551h-158v158h158v290q0 182 84.5 273.5t234.5 91.5q24 0 47.5 -2.5t40 -6.5t32 -9t24.5 -8.5t16 -7.5l8 -3l-51 -174q-47 25 -88 25q-75 0 -111.5 -43.5t-36.5 -135.5v-290h238v-158h-238zM1108 551v-551h-201v551h-157v158h157v290q0 181 85 273 t235 92q24 0 47.5 -2.5t40 -6.5t32 -9t24.5 -8.5t17 -7.5l7 -3l-52 -174q-47 25 -88 25q-75 0 -111 -43.5t-36 -135.5v-290h238v-158h-238zM1630 963q-51 0 -85 33.5t-34 84.5t34 86t85 35t86 -35t35 -86t-35 -84.5t-86 -33.5zM1530 709h201v-709h-201v709z" />
<glyph unicode="&#xfb04;" horiz-adv-x="1830" d="M1518 1368h200v-1368h-200v1368zM395 551v-551h-200v551h-158v158h158v290q0 182 84.5 273.5t234.5 91.5q24 0 47.5 -2.5t40 -6.5t32 -9t24.5 -8.5t16 -7.5l8 -3l-51 -174q-47 25 -88 25q-75 0 -111.5 -43.5t-36.5 -135.5v-290h238v-158h-238zM1108 551v-551h-201v551 h-157v158h157v290q0 181 85 273t235 92q24 0 47.5 -2.5t40 -6.5t32 -9t24.5 -8.5t17 -7.5l7 -3l-52 -174q-47 25 -88 25q-75 0 -111 -43.5t-36 -135.5v-290h238v-158h-238z" />
<glyph horiz-adv-x="0" />
<glyph horiz-adv-x="682" />
<glyph horiz-adv-x="0" />
<glyph horiz-adv-x="0" />
<glyph unicode="&#xd;" horiz-adv-x="362" />
<glyph unicode=" "  horiz-adv-x="378" />
<glyph unicode="&#x09;" horiz-adv-x="378" />
<glyph unicode="&#xa0;" horiz-adv-x="378" />
<glyph unicode="!" horiz-adv-x="503" d="M369 1149l-50 -770h-137l-51 770v80h238v-80zM123 113q0 54 37.5 91.5t91.5 37.5t91.5 -37.5t37.5 -91.5t-37.5 -91.5t-91.5 -37.5t-91.5 37.5t-37.5 91.5z" />
<glyph unicode="&#x22;" horiz-adv-x="667" d="M217 948h-127v33l39 395h174v-33zM516 948h-129v33l41 395h172v-33z" />
<glyph unicode="#" horiz-adv-x="1337" d="M1022 877h250l-27 -121h-250l-71 -320h243l-26 -121h-246l-70 -315h-131l70 315h-320l-69 -315h-131l69 315h-247l26 121h250l72 320h-242l25 121h243l72 317h131l-72 -317h320l72 317h131zM473 436h320l71 320h-319z" />
<glyph unicode="$" horiz-adv-x="1116" d="M193 279q6 -5 17 -13t48.5 -28.5t77.5 -36t101 -28.5t122 -13q131 0 194.5 46t63.5 124q0 71 -61.5 114.5t-237.5 94.5q-226 64 -326 145t-100 221q0 149 104 241t296 107v158h147v-158q73 -5 139 -19t107 -31t72 -33t44 -26l13 -11l-111 -166q-5 4 -15 11t-43.5 24 t-70.5 30t-95 24t-118 11q-116 0 -182 -40.5t-66 -113.5q0 -62 62.5 -101t232.5 -85q233 -63 333.5 -151.5t100.5 -231.5q0 -152 -101 -252t-302 -117v-157h-147v155q-77 6 -148 23.5t-116.5 39t-80 42t-49.5 34.5l-16 13z" />
<glyph unicode="%" horiz-adv-x="1378" d="M350 1255q129 0 205 -89t76 -216t-76.5 -217t-204.5 -90t-204 89.5t-76 217.5q0 127 75.5 216t204.5 89zM1225 1153l-961 -1155l-112 92l958 1155zM350 1124q-62 0 -93.5 -46t-31.5 -128t31.5 -128t93.5 -46q60 0 92.5 46.5t32.5 127.5t-32.5 127.5t-92.5 46.5zM1028 596 q129 0 205 -89t76 -218q0 -126 -76.5 -215.5t-204.5 -89.5t-205.5 89.5t-77.5 215.5q0 128 77 217.5t206 89.5zM1028 465q-61 0 -94 -46.5t-33 -129.5q0 -78 33.5 -125t93.5 -47t92.5 46.5t32.5 125.5q0 83 -32 129.5t-93 46.5z" />
<glyph unicode="&#x26;" horiz-adv-x="1300" d="M106 336q0 63 21 116t60.5 92.5t82.5 67.5t101 56l-23 22q-121 121 -121 264q0 132 96 216.5t255 84.5q166 0 263 -86t97 -213q0 -64 -21 -116.5t-62.5 -92.5t-84 -68t-102.5 -58l276 -263q60 114 60 244v45h194v-41q0 -206 -117 -379l219 -209v-18h-237l-102 98 q-158 -125 -371 -125q-234 0 -359 99.5t-125 263.5zM420 936q0 -53 29.5 -99t87.5 -98q102 43 156.5 88.5t54.5 112.5q0 64 -41 104.5t-125 40.5q-74 0 -118 -40t-44 -109zM590 150q140 0 239 73l-327 318q-84 -44 -129 -89.5t-45 -109.5q0 -82 70.5 -137t191.5 -55z" />
<glyph unicode="'" horiz-adv-x="368" d="M217 948h-127v33l39 395h174v-33z" />
<glyph unicode="(" horiz-adv-x="692" d="M674 1249q-46 -29 -87.5 -60.5t-104.5 -97.5t-107 -140t-76.5 -186t-32.5 -237q0 -91 17 -175.5t43 -148.5t64.5 -123.5t74 -100t79 -78t71.5 -57.5t59 -40l-103 -141q-51 26 -108.5 67t-132.5 119t-133.5 169.5t-99 226t-40.5 282.5t41 283t98.5 226t133.5 169 t133 118.5t108 66.5z" />
<glyph unicode=")" horiz-adv-x="692" d="M121 1391q35 -18 73.5 -43t90 -68.5t99 -94t94.5 -121.5t81.5 -149t56 -178.5t21.5 -208.5q0 -107 -21.5 -207.5t-56 -178.5t-81.5 -149.5t-94.5 -122.5t-99 -94t-90.5 -68.5t-73 -43.5l-101 141q31 20 59 40t71.5 57.5t79 78t74 100t64.5 123.5t43 148.5t17 175.5 q0 125 -32.5 237t-76.5 186t-107 140t-104.5 97.5t-87.5 60.5z" />
<glyph unicode="*" horiz-adv-x="827" d="M457 1276h-86l-27 158v59h143v-59zM145 1188l-57 16l45 137l53 -18l146 -78l-27 -80zM524 1165l-26 80l145 78l53 18l43 -137l-55 -16zM319 1122l68 -49l-70 -149l-34 -45l-115 79l33 50zM627 1008l35 -50l-117 -79l-33 45l-72 149l70 47z" />
<glyph unicode="+" horiz-adv-x="991" d="M584 694h321v-164h-321v-311h-170v311h-328v164h328v324h170v-324z" />
<glyph unicode="," horiz-adv-x="352" d="M51 106q0 52 35.5 87.5t87.5 35.5q53 0 89 -35.5t36 -89.5q0 -80 -47 -163l-78 -138h-133l72 127q8 14 17.5 25t14.5 15l5 5v11q-43 9 -71 42t-28 78z" />
<glyph unicode="-" horiz-adv-x="786" d="M98 680h590v-166h-590v166z" />
<glyph unicode="." horiz-adv-x="352" d="M51 106q0 52 36.5 88.5t88.5 36.5t87.5 -36t35.5 -89q0 -52 -35 -87t-88 -35t-89 35t-36 87z" />
<glyph unicode="/" horiz-adv-x="761" d="M254 -360h-199l453 1800h199z" />
<glyph unicode="0" horiz-adv-x="1275" d="M639 -29q-131 0 -237 51.5t-174.5 139.5t-105 203.5t-36.5 246.5q0 132 36.5 248t105 204.5t174.5 139.5t237 51t236.5 -51t173.5 -139.5t104.5 -204.5t36.5 -248q0 -131 -36.5 -246.5t-104.5 -203.5t-173.5 -139.5t-236.5 -51.5zM639 168q163 0 252.5 124t89.5 320 q0 198 -89.5 323.5t-252.5 125.5q-110 0 -189 -60t-117 -160t-38 -229q0 -128 38 -227t117 -158t189 -59z" />
<glyph unicode="1" horiz-adv-x="681" d="M43 1229h461v-1229h-203v1049h-258v180z" />
<glyph unicode="2" horiz-adv-x="1056" d="M84 41l514 586q67 75 92 120.5t25 100.5q0 92 -66 152.5t-176 60.5q-31 0 -61.5 -5.5t-55.5 -14t-50 -20.5t-43 -23.5t-35.5 -24.5t-27.5 -21.5t-19 -17.5l-9 -8l-109 161q6 7 18.5 18t54 40t87 51.5t118 40.5t148.5 18q218 0 333.5 -105.5t115.5 -272.5 q0 -84 -31.5 -156.5t-101.5 -151.5l-342 -389h508v-180h-887v41z" />
<glyph unicode="3" horiz-adv-x="1067" d="M354 584v51l279 414h-508v180h825v-41l-307 -453q164 -17 252 -115.5t88 -259.5q0 -81 -31 -151t-89.5 -123.5t-150.5 -84t-206 -30.5q-40 0 -79 4.5t-72 12.5t-65 18.5t-58 22t-50.5 24.5t-42 24.5t-33.5 23t-25.5 19t-16.5 13.5l-7 6l103 158q6 -5 17 -14.5t46.5 -32.5 t73 -41t93 -32.5t110.5 -14.5q128 0 198 58t70 149q0 96 -62.5 155.5t-173.5 59.5h-178z" />
<glyph unicode="4" horiz-adv-x="1142" d="M47 422l723 807h148v-772h147v-181h-147v-276h-203v276h-668v146zM317 457h398v456l-359 -407q-6 -6 -16 -13.5t-16 -11.5l-7 -4v-20z" />
<glyph unicode="5" horiz-adv-x="1054" d="M371 1049l-9 -299q86 12 142 12q243 0 360 -104.5t117 -282.5q0 -183 -123.5 -293.5t-351.5 -110.5q-77 0 -151.5 17.5t-126 42.5t-92 50t-60.5 43l-19 17l103 158q6 -6 17 -15t47 -32.5t73.5 -41.5t93.5 -33t111 -15q126 0 196 59.5t70 161.5q0 95 -76 151t-223 56 q-81 0 -151 -11.5t-97.5 -21t-30.5 -12.5l-28 20l20 664h729v-180h-540z" />
<glyph unicode="6" horiz-adv-x="1064" d="M86 393q0 176 117 365l289 471h247l-245 -393q-11 -17 -27.5 -36.5t-27.5 -30.5l-11 -11v-15q68 33 139 33q203 0 325 -107.5t122 -281.5q0 -189 -130.5 -302.5t-328.5 -113.5q-209 0 -339 115.5t-130 306.5zM551 600q-108 0 -179 -63.5t-71 -155.5q0 -100 70.5 -164.5 t179.5 -64.5q114 0 182 64.5t68 162.5q0 97 -66.5 159t-183.5 62z" />
<glyph unicode="7" horiz-adv-x="958" d="M70 1229h878v-47l-555 -1182h-241l505 1049h-587v180z" />
<glyph unicode="8" horiz-adv-x="1112" d="M557 -29q-215 0 -341 106t-126 263q0 101 51 181t144 128q-70 46 -108 115t-38 151q0 146 113.5 243t304.5 97q190 0 303 -97.5t113 -242.5q0 -82 -38 -151t-108 -115q92 -48 143.5 -128.5t51.5 -180.5q0 -157 -125.5 -263t-339.5 -106zM557 715q96 0 153.5 52.5 t57.5 133.5q0 74 -57.5 124t-153.5 50t-153.5 -50t-57.5 -124q0 -81 57.5 -133.5t153.5 -52.5zM557 152q112 0 182 59t70 141q0 94 -71 153.5t-181 59.5q-111 0 -182.5 -60t-71.5 -153q0 -82 71 -141t183 -59z" />
<glyph unicode="9" horiz-adv-x="1069" d="M983 834q0 -176 -117 -365l-284 -469h-254l254 408q11 17 25.5 33t22.5 23l9 7v8q-64 -28 -137 -28q-203 0 -325 107.5t-122 281.5q0 189 129 302t326 113q211 0 342 -115t131 -306zM764 836q0 105 -69 169t-179 64q-111 0 -177.5 -62t-66.5 -159q0 -96 66 -156.5 t180 -60.5q105 0 175.5 55.5t70.5 149.5z" />
<glyph unicode=":" horiz-adv-x="425" d="M88 590q0 53 35.5 89t87.5 36q53 0 89 -36.5t36 -88.5t-36 -87.5t-89 -35.5t-88 35.5t-35 87.5zM88 106q0 53 35.5 89t87.5 36q53 0 89 -36.5t36 -88.5t-36 -87t-89 -35t-88 35t-35 87z" />
<glyph unicode=";" horiz-adv-x="452" d="M104 590q0 52 36 88.5t89 36.5t89 -36.5t36 -88.5t-36 -87.5t-89 -35.5t-89 35.5t-36 87.5zM104 106q0 53 35.5 89t87.5 36q53 0 90 -36.5t37 -90.5q0 -53 -11.5 -86t-37.5 -77l-78 -138h-131l72 127q7 14 16 25t14 15l5 5v11q-43 9 -71 42t-28 78z" />
<glyph unicode="&#x3c;" horiz-adv-x="782" d="M70 565v47l491 475l119 -120l-395 -379l395 -375l-119 -123z" />
<glyph unicode="=" horiz-adv-x="1116" d="M170 879h776v-164h-776v164zM170 487h776v-163h-776v163z" />
<glyph unicode="&#x3e;" horiz-adv-x="782" d="M219 90l-117 123l396 375l-396 379l117 120l494 -475v-47z" />
<glyph unicode="?" horiz-adv-x="794" d="M68 1188q4 3 13 7.5t38.5 16t62.5 20.5t85.5 16t107.5 7q156 0 247 -83t91 -207q0 -57 -15.5 -106t-40 -84.5t-54.5 -67t-61 -61t-57 -60t-44 -70.5t-21 -86l-4 -59h-135v75q0 65 23.5 121.5t56.5 96.5t66.5 78.5t57 85.5t23.5 98q0 72 -49 116.5t-129 44.5 q-54 0 -102 -13.5t-70 -27.5l-21 -14zM229 106q0 53 35.5 89t87.5 36t88.5 -36.5t36.5 -88.5t-36 -87t-89 -35t-88 35t-35 87z" />
<glyph unicode="@" horiz-adv-x="1865" d="M934 -500q-167 0 -308 46t-242 127t-171.5 191t-104.5 237.5t-34 267.5q0 141 34.5 270t105.5 239.5t172.5 191.5t243 127t308.5 46q168 0 309 -45t237 -119.5t163.5 -172t98 -201.5t30.5 -209q0 -243 -99 -383t-276 -140q-59 0 -107 15t-74 36.5t-44 43t-24 36.5l-5 15 h-14q-5 -13 -14.5 -27t-31.5 -34.5t-49.5 -36t-72 -26.5t-97.5 -11q-153 0 -253.5 101.5t-100.5 268.5q0 173 99.5 272t254.5 99q101 0 162 -35t90 -80l27 99h129v-426q0 -70 34 -108t101 -38q94 0 147.5 88t53.5 244q0 128 -44.5 239.5t-127.5 195.5t-212.5 132.5 t-289.5 48.5q-210 0 -369.5 -91t-245 -253t-85.5 -370q0 -206 84.5 -367t243.5 -253.5t368 -92.5q104 0 193 18t126 36l37 18l68 -140q-5 -4 -15.5 -10t-48.5 -21.5t-82.5 -27.5t-119.5 -21.5t-158 -9.5zM1102 356q0 97 -55 152t-144 55q-86 0 -141 -57t-55 -150 q0 -92 55.5 -151.5t140.5 -59.5q89 0 144 57.5t55 153.5z" />
<glyph unicode="A" d="M608 1229h39l623 -1229h-232l-92 186h-637l-90 -186h-229zM635 854h-12l-222 -481l-12 -21h477l-12 21z" />
<glyph unicode="B" horiz-adv-x="1302" d="M1210 350q0 -170 -123 -260t-337 -90h-590v1229h569q213 0 327.5 -86.5t114.5 -247.5q0 -90 -45 -156.5t-125 -99.5v-18q96 -30 152.5 -100.5t56.5 -170.5zM961 874q0 86 -62 130.5t-174 44.5h-363v-347h363q109 0 172.5 47.5t63.5 124.5zM362 541v-361h394q107 0 174 48 t67 134q0 79 -63.5 129t-161.5 50h-410z" />
<glyph unicode="C" horiz-adv-x="1200" d="M1157 127q-6 -6 -17 -16.5t-50.5 -37.5t-85 -47.5t-121 -37.5t-158.5 -17q-143 0 -265.5 50.5t-205.5 137t-129.5 204t-46.5 249.5q0 133 46.5 251t129.5 204.5t205 137t266 50.5q83 0 157.5 -16t122.5 -38.5t84 -44.5t52 -38l16 -16l-117 -158q-5 5 -15 13t-42 28.5 t-66 36t-85.5 28.5t-102.5 13q-194 0 -318 -129t-124 -322q0 -191 124 -318.5t318 -127.5q55 0 107.5 12t87.5 29t62.5 34.5t40.5 29.5l13 12z" />
<glyph unicode="D" horiz-adv-x="1353" d="M1272 614q0 -276 -178.5 -445t-475.5 -169h-458v1229h458q297 0 475.5 -169.5t178.5 -445.5zM362 1049v-869h242q132 0 235.5 49.5t164.5 149t61 235.5t-61 236t-164.5 149.5t-235.5 49.5h-242z" />
<glyph unicode="E" horiz-adv-x="1167" d="M981 522h-619v-342h730v-180h-932v1229h932v-180h-730v-355h619v-172z" />
<glyph unicode="F" horiz-adv-x="1144" d="M160 1229h932v-180h-730v-355h633v-172h-633v-522h-202v1229z" />
<glyph unicode="G" horiz-adv-x="1372" d="M1090 522h-400v172h610v-104q0 -282 -152 -450.5t-427 -168.5q-194 0 -342 87t-224.5 231.5t-76.5 322.5q0 179 78 324.5t226.5 232t342.5 86.5q89 0 169 -16t130.5 -39.5t88.5 -46.5t55 -39l16 -16l-121 -156q-5 5 -15 13t-43 29t-69.5 37t-94.5 29t-118 13 q-195 0 -315.5 -128.5t-120.5 -322.5q0 -193 118 -319.5t314 -126.5q167 0 269 98t102 252v6z" />
<glyph unicode="H" horiz-adv-x="1388" d="M1229 0h-203v516h-664v-516h-202v1229h202v-541h664v541h203v-1229z" />
<glyph unicode="I" horiz-adv-x="524" d="M362 0h-202v1229h202v-1229z" />
<glyph unicode="J" horiz-adv-x="954" d="M133 240q11 -8 30.5 -20t77 -32t111.5 -20q125 0 187 66.5t63 211.5v783h205v-821q-2 -201 -112.5 -319t-327.5 -118q-199 0 -328 103z" />
<glyph unicode="K" horiz-adv-x="1251" d="M362 604l617 625h246v-25l-486 -493l486 -684v-27h-240l-391 563l-232 -237v-326h-202v1229h202v-625z" />
<glyph unicode="L" horiz-adv-x="1069" d="M160 0v1229h202v-1049h682v-180h-884z" />
<glyph unicode="M" horiz-adv-x="1552" d="M1190 801l-389 -406h-47l-392 406v-801h-202v1229h57l559 -574l563 574h54v-1229h-203v801z" />
<glyph unicode="N" horiz-adv-x="1425" d="M1266 0h-54l-850 823v-823h-202v1229h53l850 -811v811h203v-1229z" />
<glyph unicode="O" horiz-adv-x="1443" d="M721 -29q-145 0 -266.5 50.5t-203.5 137.5t-127.5 204t-45.5 249q0 134 45.5 251.5t127.5 204.5t203.5 137t266.5 50q194 0 342 -86.5t225.5 -231.5t77.5 -325q0 -178 -77.5 -323t-226 -231.5t-341.5 -86.5zM721 168q194 0 315 126t121 318q0 193 -121 321t-315 128 q-192 0 -313 -128t-121 -321q0 -191 120.5 -317.5t313.5 -126.5z" />
<glyph unicode="P" horiz-adv-x="1243" d="M160 1229h534q232 0 364 -109t132 -307q0 -208 -138 -321t-370 -113h-320v-379h-202v1229zM983 805q0 119 -79.5 181.5t-217.5 62.5h-324v-492h324q142 0 219.5 60.5t77.5 187.5z" />
<glyph unicode="Q" horiz-adv-x="1443" d="M721 -29q-145 0 -266.5 50.5t-203.5 137.5t-127.5 204t-45.5 249q0 134 45.5 251.5t127.5 204.5t203.5 137t266.5 50q194 0 342 -86.5t225.5 -231.5t77.5 -325q0 -161 -65.5 -296.5t-184.5 -223.5l121 -176v-27h-219l-76 115q-112 -33 -221 -33zM653 467h209l139 -205 q74 61 115 151.5t41 198.5q0 193 -121 321t-315 128q-192 0 -313 -128t-121 -321q0 -191 120.5 -317.5t313.5 -126.5q49 0 104 10l-172 262v27z" />
<glyph unicode="R" horiz-adv-x="1302" d="M160 1229h532q233 0 365.5 -109t132.5 -307q0 -141 -67.5 -237.5t-188.5 -143.5v-12l305 -391v-29h-225l-301 389h-351v-389h-202v1229zM981 805q0 119 -78.5 181.5t-216.5 62.5h-324v-484h336q132 0 207.5 60.5t75.5 179.5z" />
<glyph unicode="S" horiz-adv-x="1107" d="M186 279q6 -5 17.5 -13t48.5 -28.5t77 -36t101.5 -28.5t122.5 -13q131 0 194.5 46t63.5 124q0 71 -61.5 114.5t-237.5 94.5q-226 64 -326 145t-100 221q0 163 123 256.5t346 93.5q89 0 168 -12.5t129 -30.5t87 -36t53 -30l16 -13l-111 -166q-5 4 -15 11t-43.5 24 t-70.5 30t-95 24t-118 11q-116 0 -182 -40.5t-66 -113.5q0 -62 62.5 -101t232.5 -85q233 -63 333.5 -151.5t100.5 -231.5q0 -166 -120.5 -269.5t-358.5 -103.5q-91 0 -174.5 16t-136.5 38.5t-93.5 45t-58.5 38.5l-18 16z" />
<glyph unicode="T" horiz-adv-x="1087" d="M29 1229h1030v-180h-414v-1049h-203v1049h-413v180z" />
<glyph unicode="U" horiz-adv-x="1353" d="M678 -29q-247 0 -392 153t-145 396v709h203v-709q0 -156 86.5 -255t247.5 -99t245.5 98.5t84.5 255.5v709h202v-709q0 -245 -142 -397t-390 -152z" />
<glyph unicode="V" d="M633 367l119 266l286 596h228l-619 -1229h-41l-616 1229h227l291 -596l113 -266h12z" />
<glyph unicode="W" horiz-adv-x="1681" d="M799 1229h86l227 -711l39 -123h18l39 135l246 699h217l-469 -1229h-98l-227 707l-31 122h-10l-33 -122l-232 -707h-94l-469 1229h215l250 -699l37 -135h16l41 123z" />
<glyph unicode="X" horiz-adv-x="1171" d="M737 631l412 -631h-246l-268 422l-49 96l-49 -96l-267 -422h-243l407 631l-395 598h244l260 -402l45 -96l45 96l258 402h244z" />
<glyph unicode="Y" horiz-adv-x="1136" d="M905 1229h234l-469 -760v-469h-203v469l-467 760h236l290 -481l33 -72h23l34 72z" />
<glyph unicode="Z" horiz-adv-x="1122" d="M57 53l680 996h-655v180h981v-53l-664 -996h654v-180h-996v53z" />
<glyph unicode="[" horiz-adv-x="677" d="M143 1380h490v-163h-299v-1377h299v-164h-490v1704z" />
<glyph unicode="\" horiz-adv-x="761" d="M53 1440h201l453 -1800h-201z" />
<glyph unicode="]" horiz-adv-x="677" d="M45 -160h299v1377h-299v163h490v-1704h-490v164z" />
<glyph unicode="^" horiz-adv-x="817" d="M408 1223l-154 -219h-148v32l244 332h115l246 -332v-32h-148z" />
<glyph unicode="_" horiz-adv-x="1019" d="M84 -41h846v-164h-846v164z" />
<glyph unicode="`" horiz-adv-x="520" d="M94 1149v33h236l78 -291v-33h-129z" />
<glyph unicode="a" horiz-adv-x="868" d="M53 207q0 100 80 159.5t229 59.5q131 0 207 -53h11v33q0 157 -207 157q-52 0 -101.5 -13.5t-73.5 -26.5l-24 -13l-63 147q12 8 35 19t100.5 30t163.5 19q186 0 274 -89.5t88 -246.5v-389h-143l-21 78h-10q-13 -20 -36 -38.5t-81 -37t-135 -18.5q-138 0 -215.5 63 t-77.5 160zM248 217q0 -44 38.5 -72t112.5 -28q75 0 125.5 33.5t50.5 70.5q0 42 -48.5 69t-127.5 27q-72 0 -111.5 -27t-39.5 -73z" />
<glyph unicode="b" horiz-adv-x="956" d="M109 1368h200v-739h8q2 4 6.5 10.5t23 23t42 29t65.5 23t91 10.5q150 0 249 -103.5t99 -267.5q0 -167 -100 -268.5t-254 -101.5q-55 0 -101.5 12t-74 29.5t-46.5 35t-27 29.5l-7 12h-9l-30 -102h-135v1368zM299 354q0 -92 55.5 -148t141.5 -56t140 57t54 147 q0 91 -54 148t-140 57t-141.5 -55.5t-55.5 -149.5z" />
<glyph unicode="c" horiz-adv-x="739" d="M463 -16q-177 0 -289.5 104.5t-112.5 263.5q0 162 112.5 267.5t289.5 105.5q68 0 126.5 -14.5t82.5 -29.5l24 -15l-59 -150q-7 5 -20 12t-54 19t-84 12q-94 0 -154.5 -56.5t-60.5 -150.5q0 -91 60.5 -146.5t154.5 -55.5q43 0 82.5 11t57.5 21l18 11l53 -148 q-8 -7 -24.5 -17t-75.5 -27t-127 -17z" />
<glyph unicode="d" horiz-adv-x="956" d="M647 635v733h201v-1368h-135l-31 98h-8q-3 -5 -8.5 -12.5t-26.5 -27t-47.5 -34.5t-72.5 -27.5t-99 -12.5q-155 0 -256 101.5t-101 268.5q0 164 99.5 267.5t249.5 103.5q49 0 90 -9.5t65.5 -22.5t41.5 -26t23 -23l7 -9h8zM657 354q0 94 -55 149.5t-141 55.5 q-85 0 -140 -57.5t-55 -147.5q0 -89 55 -146.5t140 -57.5q86 0 141 56t55 148z" />
<glyph unicode="e" horiz-adv-x="849" d="M741 61q-4 -3 -11 -8.5t-32 -19.5t-53.5 -24.5t-75.5 -19.5t-98 -9q-186 0 -298 105.5t-112 266.5q0 162 106.5 267.5t274.5 105.5q163 0 259 -99.5t96 -260.5v-50h-539q12 -88 71.5 -133t149.5 -45q56 0 105 13.5t70 26.5l22 13zM438 575q-68 0 -114.5 -38t-61.5 -109 h344q-9 65 -54 106t-114 41z" />
<glyph unicode="f" horiz-adv-x="667" d="M395 551v-551h-200v551h-158v158h158v290q0 182 84.5 273.5t234.5 91.5q24 0 47.5 -2.5t40 -6.5t32 -9t24.5 -8.5t16 -7.5l8 -3l-51 -174q-47 25 -88 25q-75 0 -111.5 -43.5t-36.5 -135.5v-290h238v-158h-238z" />
<glyph unicode="g" horiz-adv-x="839" d="M434 -485q-191 0 -293 72t-102 186q0 135 129 192v12q-115 51 -115 156q0 53 26.5 93t90.5 71q-51 66 -51 154q0 120 85.5 196t215.5 76q40 0 135.5 -4.5t170.5 -8.5l75 -5v-140h-117v-10q4 -3 10 -10t16.5 -36.5t10.5 -68.5q0 -104 -83 -178t-218 -74q-78 0 -144 29 q-49 -24 -49 -63q0 -38 44 -58t163 -20q400 0 400 -273q0 -127 -104.5 -207.5t-295.5 -80.5zM420 578q-64 0 -100.5 -35.5t-36.5 -89.5t36.5 -88.5t100.5 -34.5t100.5 34.5t36.5 88.5t-36.5 89.5t-100.5 35.5zM434 -78q-101 0 -152 -37.5t-51 -93.5q0 -55 51 -92t152 -37 q102 0 152.5 36t50.5 93t-51 94t-152 37z" />
<glyph unicode="h" horiz-adv-x="942" d="M109 1368h200v-725h6q78 82 222 82q141 0 224 -84t83 -229v-412h-201v385q0 78 -43 126t-119 48q-78 0 -125 -44.5t-47 -102.5v-412h-200v1368z" />
<glyph unicode="i" horiz-adv-x="419" d="M211 963q-51 0 -85 33.5t-34 84.5t34 86t85 35t86 -35t35 -86t-35 -84.5t-86 -33.5zM111 709h200v-709h-200v709z" />
<glyph unicode="j" horiz-adv-x="415" d="M207 963q-50 0 -84.5 33.5t-34.5 84.5t34.5 86t84.5 35q51 0 86 -35t35 -86t-35 -84.5t-86 -33.5zM-27 -227q29 -17 62 -17q38 0 54.5 21.5t16.5 66.5v865h203v-873q0 -121 -53.5 -184.5t-171.5 -63.5q-41 0 -76 9t-50 17l-15 9z" />
<glyph unicode="k" horiz-adv-x="843" d="M795 709l-289 -344l330 -365h-256l-267 301h-6v-301h-201v1368h201v-969h4l256 310h228z" />
<glyph unicode="l" horiz-adv-x="419" d="M111 1368h200v-1368h-200v1368z" />
<glyph unicode="m" horiz-adv-x="1474" d="M109 709h129l26 -99h10q85 115 252 115q181 0 265 -123h10q34 57 100 90t162 33q145 0 229 -85t84 -228v-412h-200v383q0 79 -42.5 127.5t-119.5 48.5t-123.5 -45.5t-46.5 -105.5v-408h-201v399q0 71 -43.5 115.5t-120.5 44.5t-123.5 -46t-46.5 -105v-408h-200v709z" />
<glyph unicode="n" horiz-adv-x="940" d="M109 709h129l26 -99h10q80 115 252 115q147 0 232.5 -85t85.5 -228v-412h-201v383q0 79 -43 127.5t-121 48.5q-77 0 -123.5 -44.5t-46.5 -102.5v-412h-200v709z" />
<glyph unicode="o" horiz-adv-x="911" d="M852 350q0 -163 -114 -264.5t-281 -101.5q-168 0 -282 101t-114 265q0 167 114 271t282 104q167 0 281 -104t114 -271zM457 143q86 0 142 57.5t56 151.5q0 95 -56 154t-142 59t-142.5 -59t-56.5 -154q0 -94 56.5 -151.5t142.5 -57.5z" />
<glyph unicode="p" horiz-adv-x="956" d="M309 74v-467h-200v1102h131l30 -99h11q3 5 8.5 12.5t27 27.5t48 35t73.5 27.5t101 12.5q154 0 254 -102t100 -269q0 -164 -99 -267t-249 -103q-49 0 -91 9.5t-66 22.5t-41 26t-23 22l-7 10h-8zM299 354q0 -94 55.5 -149t141.5 -55t140 56.5t54 147.5q0 90 -54 147.5 t-140 57.5t-141.5 -56.5t-55.5 -148.5z" />
<glyph unicode="q" horiz-adv-x="956" d="M848 -393h-201v473h-8q-2 -4 -6.5 -10.5t-23 -23t-41.5 -29t-65 -23t-91 -10.5q-150 0 -249.5 103t-99.5 267q0 167 101 269t256 102q55 0 101.5 -12.5t74 -30.5t46.5 -36.5t26 -31.5l8 -12h10l29 107h133v-1102zM657 354q0 93 -55 149t-141 56q-85 0 -140 -58t-55 -147 q0 -90 55 -147t140 -57q86 0 141 55t55 149z" />
<glyph unicode="r" horiz-adv-x="630" d="M557 512q-35 25 -94 25q-62 0 -108 -43t-46 -107v-387h-200v709h129l26 -99h8q73 105 207 105q45 0 82.5 -10.5t52.5 -21.5l15 -11z" />
<glyph unicode="s" horiz-adv-x="778" d="M123 201q13 -8 35.5 -19.5t87 -31t123.5 -19.5q64 0 99.5 20t35.5 54q0 24 -24 41.5t-62 28t-84.5 21.5t-93 26.5t-84.5 37t-62 59.5t-24 89q0 98 78 157.5t235 59.5q93 0 171.5 -14.5t111.5 -29.5l32 -15l-63 -148q-9 6 -27 15.5t-77.5 25.5t-124.5 16q-127 0 -127 -67 q0 -27 32.5 -45.5t81 -28t105.5 -26t105.5 -37t81 -63.5t32.5 -103q0 -98 -83.5 -159.5t-248.5 -61.5q-98 0 -179 20t-113 40l-32 19z" />
<glyph unicode="t" horiz-adv-x="673" d="M166 709v213h201v-213h247v-160h-247v-254q0 -73 29.5 -107t90.5 -34q24 0 47 6.5t34 13.5l12 6l65 -137q-7 -7 -21 -16.5t-62.5 -26t-104.5 -16.5q-137 0 -214 79t-77 224v262h-133v160h133z" />
<glyph unicode="u" horiz-adv-x="935" d="M829 0h-135l-35 96h-8q-24 -43 -82 -77.5t-159 -34.5q-147 0 -230.5 84.5t-83.5 228.5v412h201v-383q0 -79 41.5 -127.5t118.5 -48.5t124.5 44t47.5 101v414h200v-709z" />
<glyph unicode="v" horiz-adv-x="849" d="M496 0h-142l-344 709h221l175 -412q14 -31 14 -57h10q0 26 14 57l174 412h222z" />
<glyph unicode="w" horiz-adv-x="1218" d="M903 0h-139l-137 393q-13 37 -13 68h-10q0 -28 -14 -68l-135 -393h-140l-297 709h215l140 -412q14 -42 14 -57h14q0 18 13 57l125 412h145l125 -412q12 -40 12 -57h15q0 17 12 57l143 412h209z" />
<glyph unicode="x" horiz-adv-x="839" d="M301 360l-268 349h225l160 -224h4l160 224h225l-268 -349l280 -360h-227l-170 240h-4l-172 -240h-226z" />
<glyph unicode="y" horiz-adv-x="841" d="M319 -393h-213l224 450l-314 652h220l170 -398q16 -35 18 -71h10q2 28 21 71l168 398h204z" />
<glyph unicode="z" horiz-adv-x="792" d="M66 0v88l378 459h-376v162h657v-78l-379 -469h379v-162h-659z" />
<glyph unicode="{" horiz-adv-x="571" d="M66 606q116 0 116 152v411q0 255 295 273l29 -168q-62 -10 -86.5 -33t-24.5 -86v-424q0 -157 -121 -196v-19q58 -17 89.5 -67.5t31.5 -124.5v-426q0 -62 24.5 -85.5t86.5 -33.5l-29 -166q-148 7 -221.5 76.5t-73.5 193.5v414q0 75 -30.5 113.5t-85.5 38.5h-37v157h37z " />
<glyph unicode="|" horiz-adv-x="466" d="M326 -311h-185v1689h185v-1689z" />
<glyph unicode="}" horiz-adv-x="571" d="M506 449q-57 0 -88 -38.5t-31 -113.5v-414q0 -255 -295 -270l-26 166q61 9 84.5 33t23.5 86v426q0 74 32 124.5t91 67.5v19q-60 19 -91.5 69t-31.5 127v424q0 63 -23 86t-85 33l26 168q295 -17 295 -273v-411q0 -152 119 -152h37v-157h-37z" />
<glyph unicode="~" horiz-adv-x="933" d="M614 655q44 0 82.5 11.5t55.5 22.5l16 11l61 -125q-3 -3 -8.5 -8t-25 -18t-41.5 -23t-59 -18t-77 -8q-55 0 -148.5 26.5t-152.5 26.5q-44 0 -82 -11.5t-55 -23.5l-16 -12l-62 125q3 3 8.5 8t25 18.5t41.5 23.5t59 18t77 8q55 0 148 -26t153 -26z" />
<glyph unicode="&#xa1;" horiz-adv-x="503" d="M123 1116q0 54 37.5 91.5t91.5 37.5t91.5 -37.5t37.5 -91.5t-37.5 -91.5t-91.5 -37.5t-91.5 37.5t-37.5 91.5zM369 0h-238v80l51 770h135l52 -770v-80z" />
<glyph unicode="&#xa2;" horiz-adv-x="835" d="M401 -8q-142 25 -228.5 123.5t-86.5 236.5q0 139 86 239t227 126v194h140v-188q57 -5 108.5 -20.5t74.5 -28.5l23 -12l-69 -156q-9 6 -24 15t-60 23.5t-88 14.5q-93 0 -154 -57t-61 -150q0 -91 61 -146.5t154 -55.5q43 0 86 13t64 25l22 13l69 -154q-9 -5 -25 -13.5 t-69.5 -25t-109.5 -20.5v-189h-140v193z" />
<glyph unicode="&#xa3;" horiz-adv-x="1062" d="M952 4h-821v178q5 2 13 5.5t29 19.5t37 37t29 60t13 85q0 31 -19 94h-145v148h88q-35 111 -35 192q0 79 30.5 153t88 135.5t152.5 98.5t213 37q72 0 135 -14t101.5 -34.5t67 -40.5t40.5 -34l12 -14l-113 -149q-3 4 -9 10t-27 22t-45.5 28t-65.5 22t-86 10 q-129 0 -198.5 -73t-69.5 -173q0 -80 34 -176h422v-148h-368q12 -43 12 -88q0 -126 -80 -213h565v-178z" />
<glyph unicode="&#xa4;" horiz-adv-x="1183" d="M121 264l117 117q-68 104 -68 227q0 126 68 230l-117 118l131 129l110 -127q104 68 226 68t229 -70l115 129l131 -129l-123 -125q66 -101 66 -223q0 -120 -66 -221l123 -123l-131 -129l-113 127q-104 -69 -231 -69q-123 0 -228 65l-108 -123zM358 608q0 -95 67.5 -163 t162.5 -68q96 0 163.5 67.5t67.5 163.5q0 97 -67.5 165.5t-163.5 68.5q-95 0 -162.5 -68.5t-67.5 -165.5z" />
<glyph unicode="&#xa5;" horiz-adv-x="1259" d="M967 1229h233l-381 -617h256v-147h-344v-139h344v-146h-344v-180h-203v180h-346v146h346v139h-346v147h258l-379 617h236l291 -481l33 -72h22l35 72z" />
<glyph unicode="&#xa6;" horiz-adv-x="468" d="M141 -311v1689h187v-1689h-187z" />
<glyph unicode="&#xa7;" horiz-adv-x="1103" d="M184 -96q6 -5 18 -14t49.5 -31t77 -39t99 -31t117.5 -14q122 0 181.5 47.5t59.5 120.5q0 74 -60.5 119.5t-205.5 99.5q-69 25 -113 43.5t-94 47.5t-78.5 60t-47.5 75.5t-19 98.5q0 113 74 177q-131 90 -131 235q0 162 115 259t339 97q85 0 161.5 -13.5t124 -32.5 t83 -37.5t50.5 -31.5l15 -14l-110 -165q-5 4 -14.5 11.5t-41 26.5t-66.5 33.5t-90 26.5t-112 12q-113 0 -168 -43.5t-55 -114.5q0 -128 221 -198q61 -20 101.5 -35.5t92 -39t84.5 -48t64 -56.5t45.5 -72t14.5 -87q0 -122 -74 -201q131 -97 131 -233q0 -72 -28 -134.5 t-83.5 -112.5t-148.5 -79t-213 -29q-89 0 -171 16.5t-135.5 40t-94 47t-58.5 40.5l-18 16zM494 555q-44 12 -84 27q-43 -22 -43 -82q0 -54 55 -95.5t168 -82.5q47 -16 133 -52q37 37 37 92q0 62 -65 104.5t-201 88.5z" />
<glyph unicode="&#xa8;" horiz-adv-x="825" d="M119 989q0 43 32 76t74 33q43 0 76 -33t33 -76q0 -42 -33 -74t-76 -32t-74.5 31.5t-31.5 74.5zM496 989q0 43 32 76t74 33q43 0 76 -33t33 -76q0 -42 -33 -74t-76 -32t-74.5 31.5t-31.5 74.5z" />
<glyph unicode="&#xa9;" horiz-adv-x="1466" d="M731 1245q149 0 272.5 -50t205 -136t126.5 -201t45 -246q0 -130 -45 -244.5t-126.5 -200t-205 -135.5t-272.5 -50q-147 0 -270 50t-204.5 135.5t-127 200t-45.5 244.5q0 175 77 318t226 229t344 86zM731 1133q-120 0 -220.5 -41t-167 -112t-103.5 -165.5t-37 -202.5 q0 -142 62.5 -258.5t184.5 -187t281 -70.5q161 0 284 70.5t186 186.5t63 259q0 144 -63 262t-186 188.5t-284 70.5zM891 770q-6 5 -17 12t-47.5 19t-76.5 12q-91 0 -146 -56.5t-55 -142.5t55 -141t146 -55q40 0 75 11t51 21l15 11l70 -94q-3 -3 -8.5 -8t-25.5 -18.5 t-43 -23.5t-61.5 -18t-81.5 -8q-152 0 -241.5 92.5t-89.5 230.5q0 139 89.5 231.5t241.5 92.5q68 0 123 -18.5t76 -37.5l21 -18z" />
<glyph unicode="&#xaa;" horiz-adv-x="819" d="M63 752q0 96 77.5 152.5t207.5 56.5q140 0 205 -56v37q0 90 -47 133t-152 43q-26 0 -53.5 -4t-50 -10.5t-39.5 -12t-32 -11.5t-17 -7l-49 131q15 6 41.5 15t98.5 23.5t132 14.5q334 0 334 -321v-375h-123l-25 68h-10q-59 -84 -233 -84q-115 0 -190 57t-75 150zM225 760 q0 -48 39.5 -75.5t112.5 -27.5q76 0 126 31.5t50 75.5q0 45 -47.5 73.5t-120.5 28.5q-78 0 -119 -28t-41 -78z" />
<glyph unicode="&#xab;" horiz-adv-x="897" d="M66 371l217 317h170v-16l-211 -312v-14l211 -315v-17h-170l-217 318v39zM446 371l218 317h167v-16l-210 -312v-14l210 -315v-17h-167l-218 318v39z" />
<glyph unicode="&#xac;" horiz-adv-x="1140" d="M63 711h920v-711h-168v545h-752v166z" />
<glyph unicode="&#xad;" horiz-adv-x="786" d="M98 680h590v-166h-590v166z" />
<glyph unicode="&#xae;" horiz-adv-x="1159" d="M1069 778q0 -132 -58 -240.5t-171.5 -174.5t-261.5 -66q-111 0 -203.5 38.5t-153.5 104.5t-95 153t-34 185q0 131 57.5 239t169.5 174t259 66q148 0 261.5 -66t171.5 -174t58 -239zM946 778q0 159 -103 262t-265 103t-263.5 -99t-101.5 -266q0 -158 102.5 -261 t262.5 -103q162 0 265 102t103 262zM592 993q83 0 134.5 -41t51.5 -112q0 -88 -78 -129l82 -111v-20h-98l-78 106h-114v-106h-95v413h195zM492 907v-137h96q90 0 90 68q0 34 -23 51.5t-63 17.5h-100z" />
<glyph unicode="&#xaf;" horiz-adv-x="872" d="M170 1028h557v-123h-557v123z" />
<glyph unicode="&#xb0;" horiz-adv-x="608" d="M303 1376q107 0 174.5 -63.5t67.5 -157.5t-67.5 -156.5t-174.5 -62.5q-106 0 -173 62.5t-67 156.5t67 157.5t173 63.5zM303 1272q-56 0 -89.5 -33t-33.5 -84q0 -48 33.5 -80.5t89.5 -32.5q57 0 91 32t34 81q0 51 -34 84t-91 33z" />
<glyph unicode="&#xb1;" horiz-adv-x="1101" d="M471 365v327h-348v164h348v340h168v-340h342v-164h-342v-327h-168zM981 63h-858v166h858v-166z" />
<glyph unicode="&#xb2;" horiz-adv-x="634" d="M51 739l287 291q63 63 63 121q0 47 -30 74.5t-90 27.5q-39 0 -80.5 -16.5t-59.5 -29.5t-26 -21l-72 106q4 4 11.5 10t32.5 22.5t52.5 29t69 22.5t84.5 10q131 0 194.5 -61t63.5 -156t-90 -188l-160 -162h285v-119h-535v39z" />
<glyph unicode="&#xb3;" horiz-adv-x="638" d="M70 1368h489v-35l-141 -227q170 -27 170 -197q0 -97 -72.5 -161t-208.5 -64q-54 0 -104.5 12.5t-84 30.5t-51.5 30.5t-26 20.5l74 103q9 -8 25 -19t65.5 -30t97.5 -19q71 0 107 27.5t36 72.5q0 43 -30 70t-86 27h-97v37l125 200h-288v121z" />
<glyph unicode="&#xb4;" horiz-adv-x="505" d="M219 858h-127v33l78 291h233v-33z" />
<glyph unicode="&#xb5;" horiz-adv-x="1034" d="M145 -393v1102h201v-383q0 -79 41.5 -127.5t118.5 -48.5t124.5 44t47.5 101v414h201v-709h-136l-34 96h-9q-24 -43 -82 -77.5t-159 -34.5q-62 0 -115 16v-393h-199z" />
<glyph unicode="&#xb6;" horiz-adv-x="1028" d="M641 221h-94q-224 0 -356 107t-132 307q0 190 126.5 293.5t351.5 103.5h307v-1349h-203v538z" />
<glyph unicode="&#xb7;" horiz-adv-x="364" d="M51 733q0 55 37.5 93t91.5 38t91.5 -38t37.5 -93q0 -54 -37.5 -90.5t-91.5 -36.5t-91.5 36.5t-37.5 90.5z" />
<glyph unicode="&#xb8;" horiz-adv-x="442" d="M127 -98l51 102h101l-29 -65q59 0 97 -35t38 -97q0 -68 -45.5 -108.5t-128.5 -40.5q-51 0 -92.5 16.5t-57.5 33.5l-16 16l43 73q5 -5 14.5 -12.5t40.5 -20t64 -12.5q37 0 57.5 16t20.5 44q0 27 -20.5 43t-53.5 16q-14 0 -25.5 -3t-16.5 -6l-5 -3z" />
<glyph unicode="&#xb9;" horiz-adv-x="415" d="M35 1368h280v-668h-137v547h-143v121z" />
<glyph unicode="&#xba;" horiz-adv-x="841" d="M422 1255q156 0 256 -97.5t100 -260.5q0 -156 -100 -252t-256 -96q-157 0 -258 96t-101 252q0 163 100.5 260.5t258.5 97.5zM422 1114q-89 0 -142 -59t-53 -156q0 -93 53.5 -151t141.5 -58t140 58t52 151q0 98 -51.5 156.5t-140.5 58.5z" />
<glyph unicode="&#xbb;" horiz-adv-x="897" d="M453 332l-217 -318h-170v17l210 315v14l-210 312v16h170l217 -317v-39zM831 332l-217 -318h-170v17l211 315v14l-211 312v16h170l217 -317v-39z" />
<glyph unicode="&#xbc;" horiz-adv-x="1310" d="M96 84l961 1155l100 -82l-960 -1155zM70 1229h282v-668h-137v547h-145v121zM651 250l383 418h103v-392h106v-112h-106v-164h-131v164h-355v86zM872 328q-14 -19 -53 -58l82 6h105v205h-2z" />
<glyph unicode="&#xbd;" horiz-adv-x="1472" d="M102 84l961 1155l100 -82l-962 -1155zM76 1229h280v-668h-137v547h-143v121zM870 0h535v119h-285l160 162q90 93 90 188t-63.5 156t-194.5 61q-68 0 -130.5 -23.5t-91.5 -46.5l-28 -24l72 -107q8 8 26 21t59.5 30t80.5 17q61 0 92 -28t31 -74q0 -55 -66 -121l-287 -291 v-39z" />
<glyph unicode="&#xbe;" horiz-adv-x="1503" d="M299 84l961 1155l102 -82l-963 -1155zM102 1229h488v-35l-139 -227q170 -27 170 -197q0 -96 -73.5 -160.5t-209.5 -64.5q-69 0 -133.5 22.5t-91 40.5t-39.5 31l71 102q9 -8 26 -19t66.5 -29.5t96.5 -18.5q72 0 107.5 27.5t35.5 72.5t-32 70.5t-95 25.5h-84v37l125 201 h-289v121zM840 244l385 418h102v-392h107v-112h-107v-158h-131v158h-356v86zM1063 324q-31 -36 -55 -60l82 6h106v150l2 55h-4z" />
<glyph unicode="&#xbf;" horiz-adv-x="792" d="M565 1130q0 -52 -36 -87t-89 -35t-89 35t-36 87t36.5 88.5t88.5 36.5t88.5 -36.5t36.5 -88.5zM727 49q-13 -7 -37 -18t-103.5 -29t-166.5 -18q-157 0 -247.5 82t-90.5 206q0 79 28.5 142t69.5 105.5t83 82t74 92t36 115.5l4 59h137v-77q0 -65 -23.5 -121t-57 -96 t-67.5 -78t-57.5 -85t-23.5 -98q0 -73 49 -117t129 -44q54 0 102.5 14t70.5 28l21 13z" />
<glyph unicode="&#xc0;" d="M375 1597v33h235l78 -291v-32h-129zM608 1229h39l623 -1229h-232l-92 186h-637l-90 -186h-229zM635 854h-12l-222 -481l-12 -21h477l-12 21z" />
<glyph unicode="&#xc1;" d="M692 1307h-127v32l78 291h234v-33zM608 1229h39l623 -1229h-232l-92 186h-637l-90 -186h-229zM635 854h-12l-222 -481l-12 -21h477l-12 21z" />
<glyph unicode="&#xc2;" d="M627 1495l-174 -188h-129v32l194 291h213l195 -291v-32h-129zM608 1229h39l623 -1229h-232l-92 186h-637l-90 -186h-229zM635 854h-12l-222 -481l-12 -21h477l-12 21z" />
<glyph unicode="&#xc3;" d="M770 1311q-50 0 -99.5 22t-90 44t-70.5 22q-62 0 -72 -64l-4 -28l-139 12l6 59q8 77 55.5 125.5t128.5 48.5q50 0 99 -22t89 -44t70 -22q34 0 50.5 16.5t23.5 47.5l6 28l142 -12l-9 -59q-14 -79 -60.5 -126.5t-125.5 -47.5zM608 1229h39l623 -1229h-232l-92 186h-637 l-90 -186h-229zM635 854h-12l-222 -481l-12 -21h477l-12 21z" />
<glyph unicode="&#xc4;" d="M328 1485q0 43 31.5 75.5t74.5 32.5t76 -32.5t33 -75.5t-33 -75t-76 -32t-74.5 32t-31.5 75zM705 1485q0 43 31.5 75.5t74.5 32.5t76 -32.5t33 -75.5t-33 -75t-76 -32t-74.5 32t-31.5 75zM608 1229h39l623 -1229h-232l-92 186h-637l-90 -186h-229zM635 854h-12l-222 -481 l-12 -21h477l-12 21z" />
<glyph unicode="&#xc5;" horiz-adv-x="1259" d="M569 1151q-68 19 -109.5 72t-41.5 123q0 85 60 142.5t149 57.5q88 0 147.5 -57.5t59.5 -142.5q0 -70 -41.5 -123t-108.5 -70l586 -1153h-232l-92 186h-637l-90 -186h-229zM707 1346q0 37 -21.5 59t-58.5 22q-35 0 -57.5 -22.5t-22.5 -58.5q0 -35 22.5 -57.5t57.5 -22.5 q36 0 58 22t22 58zM635 854h-12l-222 -481l-12 -21h477l-12 21z" />
<glyph unicode="&#xc6;" horiz-adv-x="1878" d="M842 1229h960v-180h-729v-357h619v-172h-619v-340h729v-180h-932v186h-526l-125 -186h-252zM455 352h415v568h-18z" />
<glyph unicode="&#xc7;" horiz-adv-x="1200" d="M625 -98l34 73q-173 14 -306.5 102.5t-204 227.5t-70.5 307q0 133 46.5 251t129.5 204.5t205 137t266 50.5q83 0 157.5 -16t122.5 -38.5t84 -44.5t52 -38l16 -16l-117 -158q-5 5 -15 13t-42 28.5t-66 36t-85.5 28.5t-102.5 13q-194 0 -318 -129t-124 -322 q0 -191 124 -318.5t318 -127.5q55 0 107.5 12t87.5 29t62.5 34.5t40.5 29.5l13 12l117 -156q-5 -6 -15 -15.5t-46.5 -34.5t-78.5 -45t-111 -38t-144 -21l-14 -34q59 0 97 -35t38 -97q0 -68 -45.5 -108.5t-128.5 -40.5q-51 0 -92.5 16.5t-57.5 33.5l-16 16l43 73 q5 -5 14.5 -12.5t40.5 -20t64 -12.5q36 0 56.5 16t20.5 44q0 27 -20 43t-53 16q-14 0 -25.5 -3t-16.5 -6l-5 -3z" />
<glyph unicode="&#xc8;" horiz-adv-x="1167" d="M406 1595v33h235l78 -291v-32h-129zM981 522h-619v-342h730v-180h-932v1229h932v-180h-730v-355h619v-172z" />
<glyph unicode="&#xc9;" horiz-adv-x="1167" d="M678 1307h-127v32l78 291h233v-33zM981 522h-619v-342h730v-180h-932v1229h932v-180h-730v-355h619v-172z" />
<glyph unicode="&#xca;" horiz-adv-x="1167" d="M635 1495l-174 -188h-129v32l194 291h213l195 -291v-32h-129zM981 522h-619v-342h730v-180h-932v1229h932v-180h-730v-355h619v-172z" />
<glyph unicode="&#xcb;" horiz-adv-x="1167" d="M336 1444q0 43 31.5 75.5t74.5 32.5t76 -32.5t33 -75.5t-33 -75t-76 -32t-74.5 32t-31.5 75zM713 1444q0 43 31.5 75.5t74.5 32.5t76 -32.5t33 -75.5t-33 -75t-76 -32t-74.5 32t-31.5 75zM981 522h-619v-342h730v-180h-932v1229h932v-180h-730v-355h619v-172z" />
<glyph unicode="&#xcc;" horiz-adv-x="524" d="M8 1595v33h236l78 -291v-32h-129zM362 0h-202v1229h202v-1229z" />
<glyph unicode="&#xcd;" horiz-adv-x="524" d="M326 1307h-127v32l77 291h234v-33zM362 0h-202v1229h202v-1229z" />
<glyph unicode="&#xce;" horiz-adv-x="524" d="M264 1495l-174 -188h-129v32l195 291h213l194 -291v-32h-129zM362 0h-202v1229h202v-1229z" />
<glyph unicode="&#xcf;" horiz-adv-x="524" d="M-37 1444q0 43 32 75.5t75 32.5t75.5 -32.5t32.5 -75.5t-32.5 -75t-75.5 -32t-75 32t-32 75zM340 1444q0 43 31.5 75.5t74.5 32.5t76 -32.5t33 -75.5t-33 -75t-76 -32t-74.5 32t-31.5 75zM362 0h-202v1229h202v-1229z" />
<glyph unicode="&#xd0;" horiz-adv-x="1370" d="M27 678h149v551h459q296 0 474.5 -169.5t178.5 -445.5t-178 -445t-475 -169h-459v551h-149v127zM379 1049v-371h231v-127h-231v-371h242q203 0 331.5 115t128.5 319t-128.5 319.5t-331.5 115.5h-242z" />
<glyph unicode="&#xd1;" horiz-adv-x="1425" d="M852 1341q-50 0 -99.5 22.5t-90 44.5t-70.5 22q-62 0 -72 -64l-4 -29l-139 13l6 59q8 77 55.5 125.5t128.5 48.5q50 0 99 -22t89 -44t70 -22q34 0 50.5 16.5t23.5 47.5l6 28l142 -12l-9 -59q-15 -79 -61 -127t-125 -48zM1266 0h-54l-850 823v-823h-202v1229h53l850 -811 v811h203v-1229z" />
<glyph unicode="&#xd2;" horiz-adv-x="1443" d="M465 1597v33h235l78 -291v-32h-129zM721 -29q-145 0 -266.5 50.5t-203.5 137.5t-127.5 204t-45.5 249q0 134 45.5 251.5t127.5 204.5t203.5 137t266.5 50q194 0 342 -86.5t225.5 -231.5t77.5 -325q0 -178 -77.5 -323t-226 -231.5t-341.5 -86.5zM721 168q194 0 315 126 t121 318q0 193 -121 321t-315 128q-192 0 -313 -128t-121 -321q0 -191 120.5 -317.5t313.5 -126.5z" />
<glyph unicode="&#xd3;" horiz-adv-x="1443" d="M780 1307h-127v32l78 291h234v-33zM721 -29q-145 0 -266.5 50.5t-203.5 137.5t-127.5 204t-45.5 249q0 134 45.5 251.5t127.5 204.5t203.5 137t266.5 50q194 0 342 -86.5t225.5 -231.5t77.5 -325q0 -178 -77.5 -323t-226 -231.5t-341.5 -86.5zM721 168q194 0 315 126 t121 318q0 193 -121 321t-315 128q-192 0 -313 -128t-121 -321q0 -191 120.5 -317.5t313.5 -126.5z" />
<glyph unicode="&#xd4;" horiz-adv-x="1443" d="M719 1495l-174 -188h-129v32l194 291h213l195 -291v-32h-129zM721 -29q-145 0 -266.5 50.5t-203.5 137.5t-127.5 204t-45.5 249q0 134 45.5 251.5t127.5 204.5t203.5 137t266.5 50q194 0 342 -86.5t225.5 -231.5t77.5 -325q0 -178 -77.5 -323t-226 -231.5t-341.5 -86.5z M721 168q194 0 315 126t121 318q0 193 -121 321t-315 128q-192 0 -313 -128t-121 -321q0 -191 120.5 -317.5t313.5 -126.5z" />
<glyph unicode="&#xd5;" horiz-adv-x="1443" d="M860 1339q-50 0 -99.5 22t-90 44t-70.5 22q-62 0 -72 -63l-4 -29l-139 13l6 59q8 77 55.5 125.5t128.5 48.5q50 0 99 -22t89.5 -44t70.5 -22q34 0 50 16t23 47l6 29l142 -12l-8 -60q-14 -79 -61 -126.5t-126 -47.5zM721 -29q-145 0 -266.5 50.5t-203.5 137.5t-127.5 204 t-45.5 249q0 134 45.5 251.5t127.5 204.5t203.5 137t266.5 50q194 0 342 -86.5t225.5 -231.5t77.5 -325q0 -178 -77.5 -323t-226 -231.5t-341.5 -86.5zM721 168q194 0 315 126t121 318q0 193 -121 321t-315 128q-192 0 -313 -128t-121 -321q0 -191 120.5 -317.5 t313.5 -126.5z" />
<glyph unicode="&#xd6;" horiz-adv-x="1443" d="M422 1442q0 43 31.5 75.5t74.5 32.5t76 -32.5t33 -75.5t-33 -75t-76 -32t-74.5 32t-31.5 75zM799 1442q0 43 31.5 75.5t74.5 32.5t76 -32.5t33 -75.5t-33 -75t-76 -32t-74.5 32t-31.5 75zM721 -29q-145 0 -266.5 50.5t-203.5 137.5t-127.5 204t-45.5 249 q0 134 45.5 251.5t127.5 204.5t203.5 137t266.5 50q194 0 342 -86.5t225.5 -231.5t77.5 -325q0 -178 -77.5 -323t-226 -231.5t-341.5 -86.5zM721 168q194 0 315 126t121 318q0 193 -121 321t-315 128q-192 0 -313 -128t-121 -321q0 -191 120.5 -317.5t313.5 -126.5z" />
<glyph unicode="&#xd7;" horiz-adv-x="1052" d="M104 315l306 306l-306 307l117 114l305 -305l305 305l117 -114l-307 -307l307 -306l-117 -114l-305 305l-305 -305z" />
<glyph unicode="&#xd8;" horiz-adv-x="1439" d="M721 -29q-251 0 -422 142l-125 -121l-90 90l127 123q-133 172 -133 407q0 134 45.5 251.5t127.5 204.5t203.5 137t266.5 50q244 0 420 -139l108 107l90 -90l-110 -109q137 -173 137 -412q0 -178 -77.5 -323t-226 -231.5t-341.5 -86.5zM287 612q0 -153 73 -260l633 619 q-114 90 -272 90q-192 0 -313 -128t-121 -321zM721 168q194 0 315 126t121 318q0 154 -78 267l-633 -621q114 -90 275 -90z" />
<glyph unicode="&#xd9;" horiz-adv-x="1353" d="M434 1597v33h236l78 -291v-32h-130zM678 -29q-247 0 -392 153t-145 396v709h203v-709q0 -156 86.5 -255t247.5 -99t245.5 98.5t84.5 255.5v709h202v-709q0 -245 -142 -397t-390 -152z" />
<glyph unicode="&#xda;" horiz-adv-x="1353" d="M739 1307h-127v32l78 291h234v-33zM678 -29q-247 0 -392 153t-145 396v709h203v-709q0 -156 86.5 -255t247.5 -99t245.5 98.5t84.5 255.5v709h202v-709q0 -245 -142 -397t-390 -152z" />
<glyph unicode="&#xdb;" horiz-adv-x="1353" d="M682 1495l-174 -188h-129v32l194 291h213l195 -291v-32h-129zM678 -29q-247 0 -392 153t-145 396v709h203v-709q0 -156 86.5 -255t247.5 -99t245.5 98.5t84.5 255.5v709h202v-709q0 -245 -142 -397t-390 -152z" />
<glyph unicode="&#xdc;" horiz-adv-x="1353" d="M379 1446q0 43 31.5 75.5t74.5 32.5t76 -32.5t33 -75.5t-33 -75t-76 -32t-74.5 32t-31.5 75zM756 1446q0 43 31.5 75.5t74.5 32.5t76 -32.5t33 -75.5t-33 -75t-76 -32t-74.5 32t-31.5 75zM678 -29q-247 0 -392 153t-145 396v709h203v-709q0 -156 86.5 -255t247.5 -99 t245.5 98.5t84.5 255.5v709h202v-709q0 -245 -142 -397t-390 -152z" />
<glyph unicode="&#xdd;" horiz-adv-x="1136" d="M635 1307h-127v32l78 291h233v-33zM905 1229h234l-469 -760v-469h-203v469l-467 760h236l290 -481l33 -72h23l34 72z" />
<glyph unicode="&#xde;" horiz-adv-x="1241" d="M362 1036h332q232 0 364 -109.5t132 -308.5q0 -208 -137.5 -320t-370.5 -112h-320v-186h-202v1229h202v-193zM981 612q0 119 -78.5 180.5t-216.5 61.5h-324v-489h324q295 0 295 247z" />
<glyph unicode="&#xdf;" horiz-adv-x="1005" d="M446 240v57l170 254h-307v-551h-200v913q0 184 84 281.5t270 97.5q40 0 78.5 -7t56.5 -14l18 -7l-53 -172q-39 18 -82 18q-85 0 -128.5 -42.5t-43.5 -137.5v-219h604v-37l-213 -312q112 -18 178 -86t66 -188q0 -143 -101 -223t-272 -80q-64 0 -119 9.5t-78 18.5l-22 9 l45 143q68 -26 158 -26q80 0 127 42t47 109q0 72 -48.5 111t-131.5 39h-103z" />
<glyph unicode="&#xe0;" horiz-adv-x="868" d="M174 1149v33h236l77 -291v-33h-129zM53 207q0 100 80 159.5t229 59.5q131 0 207 -53h11v33q0 157 -207 157q-52 0 -101.5 -13.5t-73.5 -26.5l-24 -13l-63 147q12 8 35 19t100.5 30t163.5 19q186 0 274 -89.5t88 -246.5v-389h-143l-21 78h-10q-13 -20 -36 -38.5t-81 -37 t-135 -18.5q-138 0 -215.5 63t-77.5 160zM248 217q0 -44 38.5 -72t112.5 -28q75 0 125.5 33.5t50.5 70.5q0 42 -48.5 69t-127.5 27q-72 0 -111.5 -27t-39.5 -73z" />
<glyph unicode="&#xe1;" horiz-adv-x="868" d="M477 858h-127v33l78 291h234v-33zM53 207q0 100 80 159.5t229 59.5q131 0 207 -53h11v33q0 157 -207 157q-52 0 -101.5 -13.5t-73.5 -26.5l-24 -13l-63 147q12 8 35 19t100.5 30t163.5 19q186 0 274 -89.5t88 -246.5v-389h-143l-21 78h-10q-13 -20 -36 -38.5t-81 -37 t-135 -18.5q-138 0 -215.5 63t-77.5 160zM248 217q0 -44 38.5 -72t112.5 -28q75 0 125.5 33.5t50.5 70.5q0 42 -48.5 69t-127.5 27q-72 0 -111.5 -27t-39.5 -73z" />
<glyph unicode="&#xe2;" horiz-adv-x="868" d="M426 1047l-174 -189h-129v33l194 291h213l195 -291v-33h-129zM53 207q0 100 80 159.5t229 59.5q131 0 207 -53h11v33q0 157 -207 157q-52 0 -101.5 -13.5t-73.5 -26.5l-24 -13l-63 147q12 8 35 19t100.5 30t163.5 19q186 0 274 -89.5t88 -246.5v-389h-143l-21 78h-10 q-13 -20 -36 -38.5t-81 -37t-135 -18.5q-138 0 -215.5 63t-77.5 160zM248 217q0 -44 38.5 -72t112.5 -28q75 0 125.5 33.5t50.5 70.5q0 42 -48.5 69t-127.5 27q-72 0 -111.5 -27t-39.5 -73z" />
<glyph unicode="&#xe3;" horiz-adv-x="868" d="M565 889q-50 0 -99.5 22t-90 44t-70.5 22q-62 0 -72 -64l-4 -28l-139 12l6 59q8 77 56 125.5t129 48.5q50 0 99 -22t89 -44t70 -22q34 0 50 16.5t23 47.5l6 29l142 -13l-8 -59q-14 -79 -61 -126.5t-126 -47.5zM53 207q0 100 80 159.5t229 59.5q131 0 207 -53h11v33 q0 157 -207 157q-52 0 -101.5 -13.5t-73.5 -26.5l-24 -13l-63 147q12 8 35 19t100.5 30t163.5 19q186 0 274 -89.5t88 -246.5v-389h-143l-21 78h-10q-13 -20 -36 -38.5t-81 -37t-135 -18.5q-138 0 -215.5 63t-77.5 160zM248 217q0 -44 38.5 -72t112.5 -28q75 0 125.5 33.5 t50.5 70.5q0 42 -48.5 69t-127.5 27q-72 0 -111.5 -27t-39.5 -73z" />
<glyph unicode="&#xe4;" horiz-adv-x="868" d="M129 989q0 43 32 76t75 33t75.5 -33t32.5 -76t-32.5 -74.5t-75.5 -31.5t-75 31.5t-32 74.5zM506 989q0 43 32 76t74 33q43 0 76 -33t33 -76q0 -42 -33 -74t-76 -32t-74.5 31.5t-31.5 74.5zM53 207q0 100 80 159.5t229 59.5q131 0 207 -53h11v33q0 157 -207 157 q-52 0 -101.5 -13.5t-73.5 -26.5l-24 -13l-63 147q12 8 35 19t100.5 30t163.5 19q186 0 274 -89.5t88 -246.5v-389h-143l-21 78h-10q-13 -20 -36 -38.5t-81 -37t-135 -18.5q-138 0 -215.5 63t-77.5 160zM248 217q0 -44 38.5 -72t112.5 -28q75 0 125.5 33.5t50.5 70.5 q0 42 -48.5 69t-127.5 27q-72 0 -111.5 -27t-39.5 -73z" />
<glyph unicode="&#xe5;" horiz-adv-x="868" d="M420 866q-89 0 -149 58t-60 143t60 143t149 58q88 0 147.5 -58t59.5 -143t-59.5 -143t-147.5 -58zM500 1067q0 37 -21.5 59.5t-58.5 22.5q-35 0 -57.5 -22.5t-22.5 -59.5q0 -35 22.5 -57.5t57.5 -22.5q36 0 58 22t22 58zM53 207q0 100 80 159.5t229 59.5q131 0 207 -53 h11v33q0 157 -207 157q-52 0 -101.5 -13.5t-73.5 -26.5l-24 -13l-63 147q12 8 35 19t100.5 30t163.5 19q186 0 274 -89.5t88 -246.5v-389h-143l-21 78h-10q-13 -20 -36 -38.5t-81 -37t-135 -18.5q-138 0 -215.5 63t-77.5 160zM248 217q0 -44 38.5 -72t112.5 -28 q75 0 125.5 33.5t50.5 70.5q0 42 -48.5 69t-127.5 27q-72 0 -111.5 -27t-39.5 -73z" />
<glyph unicode="&#xe6;" horiz-adv-x="1378" d="M1268 57q-4 -3 -12 -8.5t-35.5 -18.5t-58.5 -23t-80.5 -18.5t-102.5 -8.5q-184 0 -291 110q-111 -106 -305 -106q-165 0 -247.5 64t-82.5 163q0 96 79 154.5t216 58.5q150 0 223 -55h4v30q0 166 -202 166q-52 0 -103.5 -12.5t-76.5 -25.5l-25 -13l-59 148q14 7 39 17.5 t104 28t158 17.5q196 0 284 -102q110 102 273 102q164 0 260 -98.5t96 -261.5l-2 -52h-541q13 -86 73 -131t148 -45q56 0 106 13.5t73 26.5l22 13zM965 578q-71 0 -119.5 -39t-61.5 -115h351q-6 68 -51 111t-119 43zM244 217q0 -47 38.5 -74.5t116.5 -27.5q76 0 128.5 30.5 t52.5 73.5q0 41 -52.5 68.5t-128.5 27.5q-78 0 -116.5 -26.5t-38.5 -71.5z" />
<glyph unicode="&#xe7;" horiz-adv-x="739" d="M354 -98l43 88q-152 19 -244 119t-92 243q0 162 112.5 267.5t289.5 105.5q68 0 126.5 -14.5t82.5 -29.5l24 -15l-59 -150q-7 5 -20 12t-54 19t-84 12q-94 0 -154.5 -56.5t-60.5 -150.5q0 -91 60.5 -146.5t154.5 -55.5q43 0 82.5 11t57.5 21l18 11l53 -148 q-7 -6 -21 -14.5t-64 -24.5t-107 -20l-21 -47q59 0 97 -35t38 -97q0 -68 -45.5 -108.5t-128.5 -40.5q-51 0 -92.5 16.5t-57.5 33.5l-16 16l43 73q5 -5 14.5 -12.5t40.5 -20t64 -12.5q37 0 57.5 16t20.5 44q0 27 -20.5 43t-53.5 16q-14 0 -25.5 -3t-16.5 -6l-5 -3z" />
<glyph unicode="&#xe8;" horiz-adv-x="849" d="M190 1149v33h236l78 -291v-33h-129zM741 61q-4 -3 -11 -8.5t-32 -19.5t-53.5 -24.5t-75.5 -19.5t-98 -9q-186 0 -298 105.5t-112 266.5q0 162 106.5 267.5t274.5 105.5q163 0 259 -99.5t96 -260.5v-50h-539q12 -88 71.5 -133t149.5 -45q56 0 105 13.5t70 26.5l22 13z M438 575q-68 0 -114.5 -38t-61.5 -109h344q-9 65 -54 106t-114 41z" />
<glyph unicode="&#xe9;" horiz-adv-x="849" d="M485 858h-127v33l78 291h234v-33zM741 61q-4 -3 -11 -8.5t-32 -19.5t-53.5 -24.5t-75.5 -19.5t-98 -9q-186 0 -298 105.5t-112 266.5q0 162 106.5 267.5t274.5 105.5q163 0 259 -99.5t96 -260.5v-50h-539q12 -88 71.5 -133t149.5 -45q56 0 105 13.5t70 26.5l22 13z M438 575q-68 0 -114.5 -38t-61.5 -109h344q-9 65 -54 106t-114 41z" />
<glyph unicode="&#xea;" horiz-adv-x="849" d="M442 1047l-174 -189h-129v33l195 291h213l194 -291v-33h-129zM741 61q-4 -3 -11 -8.5t-32 -19.5t-53.5 -24.5t-75.5 -19.5t-98 -9q-186 0 -298 105.5t-112 266.5q0 162 106.5 267.5t274.5 105.5q163 0 259 -99.5t96 -260.5v-50h-539q12 -88 71.5 -133t149.5 -45 q56 0 105 13.5t70 26.5l22 13zM438 575q-68 0 -114.5 -38t-61.5 -109h344q-9 65 -54 106t-114 41z" />
<glyph unicode="&#xeb;" horiz-adv-x="849" d="M147 989q0 43 32 76t75 33t75.5 -33t32.5 -76t-32.5 -74.5t-75.5 -31.5t-75 31.5t-32 74.5zM524 989q0 43 32 76t75 33t75.5 -33t32.5 -76t-32.5 -74.5t-75.5 -31.5t-75 31.5t-32 74.5zM741 61q-4 -3 -11 -8.5t-32 -19.5t-53.5 -24.5t-75.5 -19.5t-98 -9 q-186 0 -298 105.5t-112 266.5q0 162 106.5 267.5t274.5 105.5q163 0 259 -99.5t96 -260.5v-50h-539q12 -88 71.5 -133t149.5 -45q56 0 105 13.5t70 26.5l22 13zM438 575q-68 0 -114.5 -38t-61.5 -109h344q-9 65 -54 106t-114 41z" />
<glyph unicode="&#xec;" horiz-adv-x="419" d="M-43 1149v33h236l77 -291v-33h-129zM111 709h200v-709h-200v709z" />
<glyph unicode="&#xed;" horiz-adv-x="419" d="M276 858h-126v33l77 291h234v-33zM111 709h200v-709h-200v709z" />
<glyph unicode="&#xee;" horiz-adv-x="419" d="M209 1047l-174 -189h-129v33l194 291h213l195 -291v-33h-129zM111 709h200v-709h-200v709z" />
<glyph unicode="&#xef;" horiz-adv-x="419" d="M-82 989q0 43 32 76t75 33t75.5 -33t32.5 -76t-32.5 -74.5t-75.5 -31.5t-75 31.5t-32 74.5zM295 989q0 43 32 76t74 33q43 0 76 -33t33 -76q0 -42 -33 -74t-76 -32t-74.5 31.5t-31.5 74.5zM111 709h200v-709h-200v709z" />
<glyph unicode="&#xf0;" horiz-adv-x="952" d="M160 893l202 115l-118 196v25h188l84 -133l193 108l63 -110l-188 -109l192 -305q59 -93 85 -164t26 -166q0 -167 -114 -267.5t-298 -100.5t-299 100.5t-115 267.5q0 163 115.5 268t300.5 105q33 0 68 -6v12q-31 33 -76 105l-39 63l-205 -117zM684 354q0 87 -58 145 t-149 58q-94 0 -153.5 -58t-59.5 -145q0 -91 59.5 -149t151.5 -58q93 0 151 58t58 149z" />
<glyph unicode="&#xf1;" horiz-adv-x="940" d="M610 889q-50 0 -99.5 22t-90 44t-70.5 22q-61 0 -71 -64l-5 -28l-139 12l6 59q8 77 56 125.5t129 48.5q50 0 99 -22t89 -44t70 -22q34 0 50 16.5t23 47.5l7 29l141 -13l-8 -59q-14 -79 -61 -126.5t-126 -47.5zM109 709h129l26 -99h10q80 115 252 115q147 0 232.5 -85 t85.5 -228v-412h-201v383q0 79 -43 127.5t-121 48.5q-77 0 -123.5 -44.5t-46.5 -102.5v-412h-200v709z" />
<glyph unicode="&#xf2;" horiz-adv-x="911" d="M209 1149v33h235l78 -291v-33h-129zM852 350q0 -163 -114 -264.5t-281 -101.5q-168 0 -282 101t-114 265q0 167 114 271t282 104q167 0 281 -104t114 -271zM457 143q86 0 142 57.5t56 151.5q0 95 -56 154t-142 59t-142.5 -59t-56.5 -154q0 -94 56.5 -151.5t142.5 -57.5z " />
<glyph unicode="&#xf3;" horiz-adv-x="911" d="M530 858h-127v33l78 291h234v-33zM852 350q0 -163 -114 -264.5t-281 -101.5q-168 0 -282 101t-114 265q0 167 114 271t282 104q167 0 281 -104t114 -271zM457 143q86 0 142 57.5t56 151.5q0 95 -56 154t-142 59t-142.5 -59t-56.5 -154q0 -94 56.5 -151.5t142.5 -57.5z " />
<glyph unicode="&#xf4;" horiz-adv-x="911" d="M457 1047l-174 -189h-129v33l194 291h213l195 -291v-33h-129zM852 350q0 -163 -114 -264.5t-281 -101.5q-168 0 -282 101t-114 265q0 167 114 271t282 104q167 0 281 -104t114 -271zM457 143q86 0 142 57.5t56 151.5q0 95 -56 154t-142 59t-142.5 -59t-56.5 -154 q0 -94 56.5 -151.5t142.5 -57.5z" />
<glyph unicode="&#xf5;" horiz-adv-x="911" d="M590 889q-50 0 -99.5 22t-90 44t-70.5 22q-62 0 -72 -64l-4 -28l-139 12l6 59q8 77 55.5 125.5t128.5 48.5q50 0 99 -22t89 -44t70 -22q34 0 50.5 16.5t23.5 47.5l6 29l141 -13l-8 -59q-14 -79 -60.5 -126.5t-125.5 -47.5zM852 350q0 -163 -114 -264.5t-281 -101.5 q-168 0 -282 101t-114 265q0 167 114 271t282 104q167 0 281 -104t114 -271zM457 143q86 0 142 57.5t56 151.5q0 95 -56 154t-142 59t-142.5 -59t-56.5 -154q0 -94 56.5 -151.5t142.5 -57.5z" />
<glyph unicode="&#xf6;" horiz-adv-x="911" d="M160 989q0 43 32 76t74 33q43 0 76 -33t33 -76q0 -42 -33 -74t-76 -32t-74.5 31.5t-31.5 74.5zM537 989q0 43 32 76t74 33q43 0 76 -33t33 -76q0 -42 -33 -74t-76 -32t-74.5 31.5t-31.5 74.5zM852 350q0 -163 -114 -264.5t-281 -101.5q-168 0 -282 101t-114 265 q0 167 114 271t282 104q167 0 281 -104t114 -271zM457 143q86 0 142 57.5t56 151.5q0 95 -56 154t-142 59t-142.5 -59t-56.5 -154q0 -94 56.5 -151.5t142.5 -57.5z" />
<glyph unicode="&#xf7;" horiz-adv-x="1015" d="M379 948q0 55 37.5 93t91.5 38t92.5 -38t38.5 -93q0 -54 -38.5 -90.5t-92.5 -36.5t-91.5 36.5t-37.5 90.5zM98 690h820v-166h-820v166zM379 270q0 54 37.5 92.5t91.5 38.5t92.5 -38.5t38.5 -92.5t-38.5 -90.5t-92.5 -36.5t-91.5 36.5t-37.5 90.5z" />
<glyph unicode="&#xf8;" horiz-adv-x="911" d="M854 350q0 -163 -114 -264.5t-281 -101.5q-134 0 -240 67l-78 -78l-69 70l73 74q-82 91 -82 233q0 167 114 271t282 104q130 0 227 -63l86 86l70 -70l-80 -80q92 -102 92 -248zM260 352q0 -54 23 -102l284 285q-52 30 -108 30q-86 0 -142.5 -59t-56.5 -154zM459 143 q86 0 142 57.5t56 151.5q0 66 -28 117l-289 -291q50 -35 119 -35z" />
<glyph unicode="&#xf9;" horiz-adv-x="935" d="M213 1149v33h236l77 -291v-33h-129zM829 0h-135l-35 96h-8q-24 -43 -82 -77.5t-159 -34.5q-147 0 -230.5 84.5t-83.5 228.5v412h201v-383q0 -79 41.5 -127.5t118.5 -48.5t124.5 44t47.5 101v414h200v-709z" />
<glyph unicode="&#xfa;" horiz-adv-x="935" d="M528 858h-127v33l78 291h234v-33zM829 0h-135l-35 96h-8q-24 -43 -82 -77.5t-159 -34.5q-147 0 -230.5 84.5t-83.5 228.5v412h201v-383q0 -79 41.5 -127.5t118.5 -48.5t124.5 44t47.5 101v414h200v-709z" />
<glyph unicode="&#xfb;" horiz-adv-x="935" d="M465 1047l-174 -189h-129v33l194 291h213l195 -291v-33h-129zM829 0h-135l-35 96h-8q-24 -43 -82 -77.5t-159 -34.5q-147 0 -230.5 84.5t-83.5 228.5v412h201v-383q0 -79 41.5 -127.5t118.5 -48.5t124.5 44t47.5 101v414h200v-709z" />
<glyph unicode="&#xfc;" horiz-adv-x="935" d="M176 989q0 43 32 76t75 33t75.5 -33t32.5 -76t-32.5 -74.5t-75.5 -31.5t-75 31.5t-32 74.5zM553 989q0 43 32 76t74 33q43 0 76 -33t33 -76q0 -42 -33 -74t-76 -32t-74.5 31.5t-31.5 74.5zM829 0h-135l-35 96h-8q-24 -43 -82 -77.5t-159 -34.5q-147 0 -230.5 84.5 t-83.5 228.5v412h201v-383q0 -79 41.5 -127.5t118.5 -48.5t124.5 44t47.5 101v414h200v-709z" />
<glyph unicode="&#xfd;" horiz-adv-x="843" d="M500 858h-127v33l78 291h233v-33zM319 -393h-213l224 450l-314 652h220l170 -398q16 -35 18 -71h10q2 28 21 71l168 398h204z" />
<glyph unicode="&#xfe;" horiz-adv-x="956" d="M307 100v-493h-201v1622h201v-615h8q2 5 7 12t24.5 26.5t43 34t64.5 26.5t89 12q153 0 250.5 -101.5t97.5 -269.5q0 -164 -99 -267t-249 -103q-49 0 -91 12t-66 29t-41 34t-23 29l-7 12h-8zM299 354q0 -94 54.5 -149t142.5 -55q85 0 138.5 56.5t53.5 147.5 q0 90 -54 147.5t-138 57.5q-87 0 -142 -56t-55 -149z" />
<glyph unicode="&#xff;" horiz-adv-x="843" d="M137 989q0 43 32 76t75 33t75.5 -33t32.5 -76t-32.5 -74.5t-75.5 -31.5t-75 31.5t-32 74.5zM514 989q0 43 32 76t75 33t75.5 -33t32.5 -76t-32.5 -74.5t-75.5 -31.5t-75 31.5t-32 74.5zM319 -393h-213l224 450l-314 652h220l170 -398q16 -35 18 -71h10q2 28 21 71 l168 398h204z" />
<glyph unicode="&#x152;" horiz-adv-x="2166" d="M717 -29q-145 0 -266.5 50.5t-203.5 137.5t-127.5 204t-45.5 249q0 134 45.5 251.5t127.5 204.5t203.5 137t266.5 50q266 0 442 -159v133h932v-180h-729v-355h618v-172h-618v-342h729v-180h-932v131q-178 -160 -442 -160zM717 168q194 0 315 126t121 318q0 193 -121 321 t-315 128q-192 0 -313 -128t-121 -321q0 -191 120.5 -317.5t313.5 -126.5z" />
<glyph unicode="&#x153;" horiz-adv-x="1447" d="M1337 61q-4 -3 -11 -8.5t-32 -19.5t-53.5 -24.5t-75.5 -19.5t-98 -9q-202 0 -313 120q-113 -116 -297 -116q-168 0 -282 101t-114 265q0 167 114 271t282 104q179 0 295 -119q109 119 286 119q163 0 259 -99.5t96 -260.5v-50h-539q12 -88 71.5 -133t149.5 -45 q56 0 105 13.5t70 26.5l22 13zM1034 575q-68 0 -114.5 -38t-61.5 -109h344q-9 65 -54 106t-114 41zM457 143q86 0 142 57.5t56 151.5q0 95 -56 154t-142 59t-142.5 -59t-56.5 -154q0 -94 56.5 -151.5t142.5 -57.5z" />
<glyph unicode="&#x178;" horiz-adv-x="1136" d="M274 1444q0 43 32 75.5t75 32.5t75.5 -32.5t32.5 -75.5t-32.5 -75t-75.5 -32t-75 32t-32 75zM651 1444q0 43 32 75.5t75 32.5t75.5 -32.5t32.5 -75.5t-32.5 -75t-75.5 -32t-75 32t-32 75zM905 1229h234l-469 -760v-469h-203v469l-467 760h236l290 -481l33 -72h23l34 72z " />
<glyph unicode="&#x2c6;" horiz-adv-x="673" d="M350 1047l-174 -189h-129v33l195 291h213l194 -291v-33h-129z" />
<glyph unicode="&#x2dc;" horiz-adv-x="880" d="M578 889q-50 0 -99.5 22t-90.5 44t-71 22q-61 0 -71 -64l-4 -28l-140 12l7 59q8 77 55.5 125.5t128.5 48.5q50 0 99 -22t89 -44t70 -22q34 0 50.5 16.5t23.5 47.5l6 29l141 -13l-8 -59q-14 -79 -60.5 -126.5t-125.5 -47.5z" />
<glyph unicode="&#x2000;" horiz-adv-x="815" />
<glyph unicode="&#x2001;" horiz-adv-x="1630" />
<glyph unicode="&#x2002;" horiz-adv-x="815" />
<glyph unicode="&#x2003;" horiz-adv-x="1630" />
<glyph unicode="&#x2004;" horiz-adv-x="543" />
<glyph unicode="&#x2005;" horiz-adv-x="407" />
<glyph unicode="&#x2006;" horiz-adv-x="271" />
<glyph unicode="&#x2007;" horiz-adv-x="271" />
<glyph unicode="&#x2008;" horiz-adv-x="203" />
<glyph unicode="&#x2009;" horiz-adv-x="326" />
<glyph unicode="&#x200a;" horiz-adv-x="90" />
<glyph unicode="&#x2010;" horiz-adv-x="786" d="M98 680h590v-166h-590v166z" />
<glyph unicode="&#x2011;" horiz-adv-x="786" d="M98 680h590v-166h-590v166z" />
<glyph unicode="&#x2012;" horiz-adv-x="786" d="M98 680h590v-166h-590v166z" />
<glyph unicode="&#x2013;" horiz-adv-x="940" d="M98 672h744v-166h-744v166z" />
<glyph unicode="&#x2014;" horiz-adv-x="1466" d="M98 672h1270v-166h-1270v166z" />
<glyph unicode="&#x2018;" horiz-adv-x="399" d="M315 1034q0 -53 -35 -88t-87 -35q-53 0 -89 35.5t-36 89.5q0 81 47 164l78 137h133l-72 -127q-8 -14 -17 -25t-15 -15l-5 -5v-10q43 -9 70.5 -42.5t27.5 -78.5z" />
<glyph unicode="&#x2019;" horiz-adv-x="397" d="M90 1231q0 53 35 88t88 35t89 -35.5t36 -89.5q0 -81 -47 -164l-78 -137h-133l72 127q8 14 17 25t14 16l5 4v10q-43 9 -70.5 42.5t-27.5 78.5z" />
<glyph unicode="&#x201a;" horiz-adv-x="352" d="M51 106q0 52 35.5 87.5t87.5 35.5q53 0 89 -35.5t36 -89.5q0 -80 -47 -163l-78 -138h-133l72 127q8 14 17.5 25t14.5 15l5 5v11q-43 9 -71 42t-28 78z" />
<glyph unicode="&#x201c;" horiz-adv-x="786" d="M315 1036q0 -53 -35 -88t-87 -35q-53 0 -89 35.5t-36 89.5q0 81 47 164l78 137h133l-72 -127q-8 -14 -17 -25t-15 -15l-5 -5v-10q43 -9 70.5 -42.5t27.5 -78.5zM702 1036q0 -53 -35 -88t-87 -35q-53 0 -89 35.5t-36 89.5q0 81 47 164l78 137h133l-72 -127 q-8 -14 -17.5 -25t-14.5 -15l-5 -5v-10q43 -9 70.5 -42.5t27.5 -78.5z" />
<glyph unicode="&#x201d;" horiz-adv-x="772" d="M84 1231q0 53 35 88t88 35t89 -35.5t36 -89.5q0 -81 -47 -164l-78 -137h-133l71 127q8 14 17 25t14 16l6 4v10q-43 9 -70.5 42.5t-27.5 78.5zM459 1231q0 53 35.5 88t87.5 35q53 0 89 -35.5t36 -89.5q0 -80 -48 -164l-77 -137h-133l71 127q8 14 17 25t15 16l5 4v10 q-43 9 -70.5 42.5t-27.5 78.5z" />
<glyph unicode="&#x201e;" horiz-adv-x="817" d="M51 106q0 52 35.5 87.5t87.5 35.5q53 0 89 -35.5t36 -89.5q0 -80 -47 -163l-78 -138h-133l72 127q8 14 17.5 25t14.5 15l5 5v11q-43 9 -71 42t-28 78zM516 106q0 52 35 87.5t88 35.5t89 -35.5t36 -89.5q0 -80 -47 -163l-78 -138h-133l72 127q8 14 17 25t14 15l5 5v11 q-43 9 -70.5 42t-27.5 78z" />
<glyph unicode="&#x2022;" horiz-adv-x="630" d="M143 354q0 71 50.5 122.5t121.5 51.5t122.5 -52t51.5 -122q0 -71 -51.5 -121.5t-122.5 -50.5q-72 0 -122 50t-50 122z" />
<glyph unicode="&#x2026;" horiz-adv-x="1204" d="M53 113q0 56 37 93.5t92 37.5q54 0 92.5 -38t38.5 -93t-38.5 -93t-92.5 -38q-55 0 -92 37.5t-37 93.5zM473 113q0 56 37 93.5t92 37.5q56 0 93.5 -38t37.5 -93t-37.5 -93t-93.5 -38q-55 0 -92 37.5t-37 93.5zM893 113q0 55 37.5 93t91.5 38q56 0 93.5 -38t37.5 -93 t-37.5 -93t-93.5 -38q-54 0 -91.5 38t-37.5 93z" />
<glyph unicode="&#x202f;" horiz-adv-x="326" />
<glyph unicode="&#x2039;" horiz-adv-x="518" d="M66 371l217 317h170v-16l-211 -312v-14l211 -315v-17h-170l-217 318v39z" />
<glyph unicode="&#x203a;" horiz-adv-x="518" d="M453 332l-217 -318h-170v17l210 315v14l-210 312v16h170l217 -317v-39z" />
<glyph unicode="&#x205f;" horiz-adv-x="407" />
<glyph unicode="&#x20ac;" horiz-adv-x="1214" d="M852 395h-401q40 -103 121 -161t202 -58q44 0 85 11t68 26.5t48 30.5t31 26l10 11l119 -154q-5 -6 -14 -16t-42.5 -35t-72 -44.5t-102.5 -35.5t-134 -16q-214 0 -350.5 113.5t-186.5 301.5h-153v146h127q-4 30 -4 73l4 68h-127v145h151q48 191 185 306.5t354 115.5 q70 0 133.5 -15t104 -36.5t70.5 -43.5t44 -37l13 -15l-119 -154q-4 4 -10.5 11t-29.5 25.5t-49 32t-67.5 25t-85.5 11.5q-122 0 -204.5 -60.5t-120.5 -165.5h403v-145h-436q-4 -29 -4 -68l4 -73h436v-146z" />
<glyph unicode="&#x2122;" horiz-adv-x="1511" d="M596 1112h-197v-537h-133v537h-196v117h526v-117zM715 575v654h35l292 -277q59 53 297 277h35v-654h-133v398l-184 -176h-27l-182 176v-398h-133z" />
<glyph unicode="&#x25fc;" horiz-adv-x="706" d="M0 707h707v-707h-707v707z" />
</font>
</defs>
</svg>
